<svg xmlns="http://www.w3.org/2000/svg" width="57" height="60" viewBox="0 0 57 60" fill="none"><path d="M53.5771 16.7277C50.933 11.103 46.4915 6.5117 40.9486 3.67315C39.4664 2.90064 37.8586 2.40557 36.3869 1.6159C36.6796 1.07708 36.9641 0.541032 37.248 0C34.5546 2.29316 32.2107 5.42084 32.1196 9.08735C31.9374 13.9284 34.8085 18.1232 35.8219 22.7101C32.3151 21.7626 28.8773 20.5404 25.3728 19.584C25.2116 19.5185 25.0366 19.4939 24.8635 19.5125C24.6904 19.5311 24.5246 19.5922 24.381 19.6904C24.2375 19.7887 24.1207 19.9209 24.0411 20.0752C23.9615 20.2296 23.9216 20.4012 23.925 20.5747C23.8972 21.5333 24.9995 21.6047 25.67 21.8966C29.294 22.9587 32.8857 24.1244 36.5163 25.1544C36.8599 26.8541 36.8938 28.6016 36.6163 30.3133C32.7274 29.126 28.854 27.8623 24.9367 26.7808C23.7256 26.3932 23.1372 28.4316 24.355 28.7406C28.2784 30.0907 32.2996 31.1395 36.2385 32.4464C35.7203 33.9844 35.0478 35.4664 34.2313 36.8699C32.2412 36.3311 30.314 35.5852 28.3045 35.1222C27.3173 34.739 26.4645 36.3765 27.4156 36.9347C29.1668 37.7333 31.0723 38.1137 32.9079 38.663C32.2007 39.667 31.4301 40.6273 30.6401 41.5659C35.2607 39.0523 40.0652 35.9507 42.3181 31.0011C44.0864 27.1679 43.2336 22.7499 41.6064 19.0281C39.7875 14.4534 36.7147 10.304 36.0091 5.34166C41.0996 7.09456 45.4846 10.4419 48.5093 14.8836C50.4125 17.696 51.7088 20.8718 52.316 24.2098C52.9232 27.5477 52.828 30.975 52.0366 34.2744C51.2452 37.5737 49.7748 40.6733 47.7185 43.3764C45.6622 46.0796 43.065 48.3275 40.0914 49.9777C36.4421 51.9749 32.3552 53.0448 28.1923 53.0926C27.2761 54.2378 26.2982 55.3326 25.2628 56.372C31.8382 57.0639 38.4472 55.4146 43.9199 51.7161C49.3926 48.0177 53.3762 42.5086 55.1655 36.1639C56.981 29.7036 56.4176 22.8089 53.5771 16.7266V16.7277Z" fill="#0C86D1"></path><path d="M16.4578 3.15277C21.7865 0.751871 27.7278 0.0433545 33.4746 1.12346C32.7171 2.14884 32.0229 3.21926 31.3961 4.32877C26.825 3.72022 22.1742 4.40314 17.9736 6.29973C13.7731 8.19632 10.1917 11.2303 7.63748 15.056C5.08329 18.8817 3.65901 23.3453 3.52693 27.9382C3.39484 32.5311 4.56026 37.0686 6.8904 41.0337C10.0587 46.4308 15.185 50.4108 21.212 52.1528C21.5812 50.9097 21.8279 49.6338 21.9489 48.3431C22.2989 42.6877 19.3578 37.6094 17.3471 32.5217C15.8167 28.803 14.6603 24.4106 16.5446 20.5965C19.0294 15.7173 24.1576 13.0465 28.9208 10.807C27.1787 12.2026 25.6232 13.8148 24.2923 15.6042C26.9574 16.514 29.6904 17.2027 32.3466 18.1186C32.5187 18.1657 32.6756 18.2565 32.8019 18.3821C32.9283 18.5076 33.0198 18.6637 33.0675 18.8351C33.1153 19.0064 33.1176 19.1871 33.0742 19.3596C33.0308 19.5321 32.9433 19.6904 32.8202 19.8192C32.4072 20.3692 31.6855 20.1158 31.1401 19.9661C28.5056 19.1649 25.8661 18.3526 23.2316 17.5492C22.613 19.0562 22.1999 20.6391 22.0034 22.2554C26.1644 23.5462 30.3465 24.7616 34.4897 26.0867C34.6971 26.1245 34.8887 26.2224 35.0406 26.3682C35.1924 26.514 35.2977 26.7012 35.3432 26.9063C35.3887 27.1114 35.3724 27.3254 35.2964 27.5213C35.2204 27.7173 35.0881 27.8866 34.916 28.0079C34.4574 28.3567 33.8747 28.0634 33.3767 27.9713C29.5924 26.8036 25.7926 25.6753 22.0162 24.4843C22.1219 26.2972 22.4325 28.0925 22.9422 29.836L33.4746 32.9071C33.6287 32.9475 33.773 33.0182 33.8992 33.115C34.0254 33.2119 34.1308 33.333 34.2092 33.4711C34.2876 33.6093 34.3375 33.7616 34.3559 33.9193C34.3742 34.0769 34.3607 34.2366 34.3161 34.389C34.2715 34.5413 34.1967 34.6832 34.0961 34.8063C33.9955 34.9294 33.8713 35.0311 33.7306 35.1056C33.5899 35.18 33.4357 35.2256 33.277 35.2397C33.1184 35.2538 32.9585 35.2361 32.8068 35.1876L24.0552 32.6371C24.0202 32.6326 23.9857 32.6238 23.9506 32.6199C25.0703 35.8119 26.5962 38.8614 27.5312 42.121C28.4772 45.2376 28.6397 48.8139 26.8767 51.6832C24.2895 55.8721 19.6421 58.1027 15.2747 60C16.8364 58.5889 18.2589 57.0319 19.5225 55.3503C14.1188 53.6182 9.3672 50.2984 5.89162 45.8269C2.41604 41.3553 0.378971 35.9411 0.0479128 30.2952C-0.283145 24.6492 1.10728 19.0355 4.03661 14.1912C6.96595 9.34684 11.2972 5.49837 16.4617 3.15111L16.4578 3.15277Z" fill="#002C56"></path></svg>