<svg xmlns="http://www.w3.org/2000/svg" viewBox="0 0 361.518 76.487"><defs><style>.cls-1{fill:#3e97ce;}.cls-2{fill:#002c56;}</style></defs><g id="Layer_2" data-name="Layer 2"><g id="Layer_1-2" data-name="Layer 1"><path class="cls-1" d="M68.094,21.362A35.843,35.843,0,0,0,52.019,4.691c-1.887-.987-3.934-1.619-5.807-2.627.373-.689.735-1.373,1.1-2.064C43.88,2.928,40.9,6.923,40.781,11.605,40.549,17.787,44.2,23.144,45.494,29c-4.464-1.21-8.84-2.771-13.3-3.992a1.338,1.338,0,0,0-1.843,1.265c-.036,1.224,1.368,1.316,2.221,1.688,4.613,1.357,9.185,2.845,13.807,4.161a18.466,18.466,0,0,1,.127,6.588c-4.95-1.516-9.881-3.13-14.867-4.511-1.542-.5-2.291,2.108-.741,2.5,4.994,1.724,10.114,3.063,15.127,4.732a30.821,30.821,0,0,1-2.555,5.649c-2.533-.688-4.986-1.641-7.544-2.232-1.257-.489-2.343,1.6-1.13,2.315a53.433,53.433,0,0,0,6.992,2.207c-.9,1.282-1.882,2.508-2.887,3.707,5.881-3.21,12-7.171,14.865-13.492,2.251-4.9,1.165-10.538-.906-15.29-2.315-5.842-6.227-11.141-7.125-17.478A31.764,31.764,0,0,1,61.646,19.009,31.276,31.276,0,0,1,50.928,63.824,32.248,32.248,0,0,1,35.781,67.8a51.894,51.894,0,0,1-3.729,4.188A35.653,35.653,0,0,0,70.116,46.183a35.881,35.881,0,0,0-2.022-24.821Z"></path><path class="cls-2" d="M20.9,3.978A36.194,36.194,0,0,1,42.524,1.39a39.966,39.966,0,0,0-2.641,4.088A31.284,31.284,0,0,0,8.742,52.3a31.135,31.135,0,0,0,18.2,14.177,25.5,25.5,0,0,0,.937-4.859c.444-7.213-3.293-13.691-5.848-20.18-1.945-4.743-3.415-10.345-1.02-15.21,3.158-6.221,9.674-9.63,15.727-12.486a33.285,33.285,0,0,0-5.882,6.118c3.387,1.161,6.857,2.039,10.236,3.208a1.31,1.31,0,0,1,.6,2.168c-.524.7-1.442.379-2.135.188-3.347-1.022-6.7-2.058-10.049-3.083a23.2,23.2,0,0,0-1.561,6c5.287,1.646,10.6,3.2,15.867,4.887a1.361,1.361,0,0,1,.542,2.45c-.583.445-1.323.072-1.956-.047-4.812-1.489-9.638-2.928-14.437-4.447a30.767,30.767,0,0,0,1.177,6.826l13.384,3.917a1.515,1.515,0,1,1-.851,2.908L30.552,41.583c-.044,0-.088-.017-.133-.021,1.423,4.071,3.362,7.96,4.55,12.118,1.2,3.975,1.409,8.536-.831,12.2-3.288,5.343-9.2,8.188-14.744,10.611a41.97,41.97,0,0,0,5.4-5.931A35.761,35.761,0,0,1,20.9,3.978Z"></path><path class="cls-2" d="M101.053,31.461c3.75-.8,5.829-2.593,5.829-6.187,0-5.438-4.75-7-13.016-7H83.319v1a1.714,1.714,0,0,1,1.594,1.594V47.633a1.714,1.714,0,0,1-1.594,1.594v1H95.178c7.36,0,15.219-1.484,15.219-9.578,0-5.953-4.234-8.313-9.344-9.188ZM91.71,20.868A1.714,1.714,0,0,1,93.3,19.274h.563c4.109,0,5.828,1.875,5.828,6,0,4.109-1.719,5.781-5.828,5.781H93.3a1.714,1.714,0,0,1-1.593-1.594ZM93.3,49.227a1.714,1.714,0,0,1-1.593-1.594V33.649A1.714,1.714,0,0,1,93.3,32.055h1.875c4.485,0,8.032,2.922,8.032,8.594s-3.547,8.578-8.032,8.578Zm23.879-23a3.2,3.2,0,1,0-3.2-3.2,3.2,3.2,0,0,0,3.2,3.2Zm3.594,3.625h-7.594v1a1.716,1.716,0,0,1,1.594,1.609V50.227h7.594v-1a1.714,1.714,0,0,1-1.594-1.594Z"></path><path class="cls-2" d="M135.292,29.305a10.759,10.759,0,1,0,10.937,10.781,10.645,10.645,0,0,0-10.937-10.781Zm0,20.563c-2.516,0-4.547-4.266-4.547-9.782s2.031-9.828,4.547-9.828,4.547,4.313,4.547,9.828-2.032,9.782-4.547,9.782Z"></path><path class="cls-2" d="M149.011,18.274v1a1.714,1.714,0,0,1,1.593,1.594V47.633a1.714,1.714,0,0,1-1.593,1.594v1H159v-1a1.714,1.714,0,0,1-1.594-1.594V39.04A1.714,1.714,0,0,1,159,37.446h2.078c7.344,0,15.219-1.469,15.219-9.578s-7.875-9.594-15.219-9.594ZM159,36.446a1.714,1.714,0,0,1-1.594-1.594V20.868A1.714,1.714,0,0,1,159,19.274h2.078c4.469,0,8.031,2.922,8.031,8.594s-3.562,8.578-8.031,8.578Z"></path><path class="cls-2" d="M197.218,40.008c0-6.468-2.829-10.7-9.86-10.7a59.664,59.664,0,0,0-7.469.547v7.234h1.875c0-3.031,1.282-6.828,5.594-6.828,2.031,0,3.469.953,3.75,3,.922,6.5-13.375,3.907-13.375,11.657,0,4.312,3.344,5.875,6.5,5.875a8.678,8.678,0,0,0,7-3.844v3.281h7.578v-1a1.713,1.713,0,0,1-1.593-1.594Zm-10.266,8.344c-1.875,0-2.875-1.312-2.875-3.437,0-4.11,6.437-6.063,7.156-8.547.031,1.765,0,3.515,0,3.64v4.5c-.406,1.813-2.406,3.844-4.281,3.844Z"></path><path class="cls-2" d="M207.233,32.461a1.716,1.716,0,0,1,1.594-1.609H212.7v-1h-5.469V22.274h-7.594v1a1.714,1.714,0,0,1,1.594,1.594v4.984h-1.594v1a1.716,1.716,0,0,1,1.594,1.609V44.915c0,4.312,3.36,5.875,6.516,5.875a6.619,6.619,0,0,0,4.953-2V47.508a4.063,4.063,0,0,1-2.234.844c-2.047,0-3.235-1.156-3.235-3.437Z"></path><path class="cls-2" d="M234.917,35.165c0-4.313-3.36-5.86-6.516-5.86a8.825,8.825,0,0,0-6.5,3.156V18.274h-7.594v1a1.714,1.714,0,0,1,1.594,1.594V50.227H223.5v-1a1.714,1.714,0,0,1-1.594-1.594V34.368a4.91,4.91,0,0,1,3.8-2.625c2.031,0,3.234,1.156,3.234,3.422V50.227h7.579v-1a1.714,1.714,0,0,1-1.594-1.594Z"></path><path class="cls-2" d="M249.444,29.305a10.759,10.759,0,1,0,10.938,10.781,10.644,10.644,0,0,0-10.938-10.781Zm0,20.563c-2.516,0-4.547-4.266-4.547-9.782s2.031-9.828,4.547-9.828,4.547,4.313,4.547,9.828-2.031,9.782-4.547,9.782Z"></path><path class="cls-2" d="M283.616,53.024a7.927,7.927,0,0,0-8.313-8.063c-3.468,0-5.671,2.954-7.984,2.954-1.953,0-2.359-3.641,1.672-5.079a11.457,11.457,0,0,0,3.953.688c5.156,0,8.875-3.078,8.875-7.109a6.3,6.3,0,0,0-1.2-3.688v-.266a1.716,1.716,0,0,1,1.594-1.609v-1h-5.672a11.279,11.279,0,0,0-3.594-.547c-5.141,0-8.859,3.11-8.859,7.11a6.7,6.7,0,0,0,3.593,5.828c-2.2,1-4.718,2.468-4.718,5.75,0,3.437,3.234,3.906,4.359,3.906,2.953,0,4.438-2.344,7.984-2.344,2.282,0,3.36,1.875,3.438,4.11.078,3.437-2.2,7.218-6.313,7.218-4.953,0-5.5-4.312-4.421-6.656l-5.157-2.719a8.35,8.35,0,0,0-.687,3.469c.047,3.672,2.562,7.234,10.265,7.234,7.719,0,11.266-4.468,11.188-9.187ZM272.944,30.258c2.078,0,3.766,2.516,3.766,6.157,0,3.671-1.688,6.187-3.766,6.187-2.062,0-3.75-2.516-3.75-6.187,0-3.641,1.688-6.157,3.75-6.157Z"></path><path class="cls-2" d="M300.616,42.915c.8,3.234-1.2,7.312-4.438,6.906-2.2-.391-3.515-2.063-4.109-4.953-.719-5.547,13.969-.672,13.969-8.938,0-4.359-4.469-6.625-9.016-6.625-7.156,0-11.781,4.313-11.781,10.735a10.619,10.619,0,0,0,10.937,10.75c5.75,0,10.391-2.875,10.391-7.829a7.087,7.087,0,0,0-.281-2.078Zm-3.641-12.657c2.36,0,3.563,2.078,3.563,4.313,0,4.469-7.438,5.547-8.828,7.828-.047-.719-.078-1.516-.078-2.359,0-5.907,1.953-9.782,5.343-9.782Zm-6.5,6.266v0Z"></path><path class="cls-2" d="M329.159,35.165c0-4.313-3.359-5.86-6.516-5.86a8.825,8.825,0,0,0-6.5,3.156V29.852H308.55v1a1.716,1.716,0,0,1,1.593,1.609V50.227h7.594v-1a1.714,1.714,0,0,1-1.594-1.594V34.368a4.91,4.91,0,0,1,3.8-2.625c2.031,0,3.235,1.156,3.235,3.422V50.227h7.578v-1a1.714,1.714,0,0,1-1.594-1.594Z"></path><path class="cls-2" d="M336.346,26.227a3.2,3.2,0,1,0-3.2-3.2,3.2,3.2,0,0,0,3.2,3.2Zm3.594,3.625h-7.594v1a1.716,1.716,0,0,1,1.594,1.609V50.227h7.594v-1a1.714,1.714,0,0,1-1.594-1.594Z"></path><path class="cls-2" d="M354.815,38.243l3.641-5.875c.437-.672,1.187-1.594,1.984-1.594v-1h-2.422l-4.156,6.719-3.641-6.641h-7.109v1c.8,0,1.2.891,1.594,1.609l4.515,8.625-4.109,6.625c-.437.672-1.2,1.594-2,1.594v1h2.438l4.593-7.422,3.875,7.344h7.5v-1c-.8,0-1.234-.922-1.593-1.594Z"></path></g></g></svg>